<svg xmlns="http://www.w3.org/2000/svg" viewBox="0 0 800 1000" width="800" height="1000" role="img"><defs><linearGradient id="g-sunglasses-1" x1="0" y1="0" x2="1" y2="1"><stop offset="0" stop-color="#323232"/><stop offset="0.55" stop-color="#1c1c1c"/><stop offset="1" stop-color="#020202"/></linearGradient></defs><rect width="800" height="1000" fill="#e9e7e4"/><ellipse cx="400" cy="850" rx="230" ry="30" fill="#000" opacity="0.05"/><g transform="rotate(-4 400 500)"><path d="M180 452 L360 452 Q380 452 380 474 L380 500 Q380 566 320 566 L268 566 Q206 566 196 502 Z M620 452 L440 452 Q420 452 420 474 L420 500 Q420 566 480 566 L532 566 Q594 566 604 502 Z M380 470 Q400 458 420 470 L420 484 Q400 474 380 484 Z" fill="url(#g-sunglasses-1)" stroke="#000000" stroke-opacity="0.35" stroke-width="2" stroke-linejoin="round"/></g></svg>