<svg xmlns="http://www.w3.org/2000/svg" viewBox="0 0 800 1000" width="800" height="1000" role="img"><defs><linearGradient id="g-sandal-0" x1="0" y1="0" x2="1" y2="1"><stop offset="0" stop-color="#323232"/><stop offset="0.55" stop-color="#1c1c1c"/><stop offset="1" stop-color="#020202"/></linearGradient></defs><rect width="800" height="1000" fill="#f1f0ee"/><ellipse cx="400" cy="850" rx="230" ry="30" fill="#000" opacity="0.05"/><g><path d="M182 656 Q182 628 216 626 L588 626 Q624 628 624 660 L624 686 Q624 714 590 714 L214 714 Q182 714 182 684 Z M252 626 Q262 552 334 548 L470 548 Q542 552 552 626 L502 626 Q494 588 452 586 L350 586 Q308 588 302 626 Z" fill="url(#g-sandal-0)" stroke="#000000" stroke-opacity="0.35" stroke-width="2" stroke-linejoin="round"/><path d="M182 690 L624 690" fill="none" stroke="#000000" stroke-opacity="0.28" stroke-width="2"/></g></svg>