<svg xmlns="http://www.w3.org/2000/svg" viewBox="0 0 800 1000" width="800" height="1000" role="img"><defs><linearGradient id="g-sneaker-1" x1="0" y1="0" x2="1" y2="1"><stop offset="0" stop-color="#a5a5a5"/><stop offset="0.55" stop-color="#8f8f8f"/><stop offset="1" stop-color="#757575"/></linearGradient></defs><rect width="800" height="1000" fill="#e9e7e4"/><ellipse cx="400" cy="850" rx="230" ry="30" fill="#000" opacity="0.05"/><g transform="rotate(-4 400 500)"><path d="M198 716 Q184 604 248 578 L302 552 Q334 538 360 560 L424 616 Q474 652 546 668 L588 678 Q624 688 624 716 L624 730 Q624 748 604 748 L216 748 Q198 748 198 730 Z" fill="url(#g-sneaker-1)" stroke="#5b5b5b" stroke-opacity="0.35" stroke-width="2" stroke-linejoin="round"/><path d="M198 714 L624 714" fill="none" stroke="#5b5b5b" stroke-opacity="0.28" stroke-width="2"/><path d="M330 548 L386 640" fill="none" stroke="#5b5b5b" stroke-opacity="0.28" stroke-width="2"/><path d="M262 588 L318 674" fill="none" stroke="#5b5b5b" stroke-opacity="0.28" stroke-width="2"/><path d="M470 646 L448 700" fill="none" stroke="#5b5b5b" stroke-opacity="0.28" stroke-width="2"/></g></svg>