<svg xmlns="http://www.w3.org/2000/svg" viewBox="0 0 800 1000" width="800" height="1000" role="img"><defs><linearGradient id="g-knit-1" x1="0" y1="0" x2="1" y2="1"><stop offset="0" stop-color="#f4ebdc"/><stop offset="0.55" stop-color="#ded5c6"/><stop offset="1" stop-color="#c4bbac"/></linearGradient></defs><rect width="800" height="1000" fill="#e9e7e4"/><ellipse cx="400" cy="850" rx="230" ry="30" fill="#000" opacity="0.05"/><g transform="rotate(-4 400 500)"><path d="M318 268 L232 308 L178 566 L252 590 L290 444 L290 786 Q290 804 308 804 L492 804 Q510 804 510 786 L510 444 L548 590 L622 566 L568 308 L482 268 Q400 322 318 268 Z" fill="url(#g-knit-1)" stroke="#aaa192" stroke-opacity="0.35" stroke-width="2" stroke-linejoin="round"/><path d="M318 268 Q400 322 482 268" fill="none" stroke="#aaa192" stroke-opacity="0.28" stroke-width="2"/><path d="M290 470 L510 470" fill="none" stroke="#aaa192" stroke-opacity="0.28" stroke-width="2"/><path d="M290 590 L510 590" fill="none" stroke="#aaa192" stroke-opacity="0.28" stroke-width="2"/><path d="M290 710 L510 710" fill="none" stroke="#aaa192" stroke-opacity="0.28" stroke-width="2"/><path d="M178 566 L252 590" fill="none" stroke="#aaa192" stroke-opacity="0.28" stroke-width="2"/><path d="M548 590 L622 566" fill="none" stroke="#aaa192" stroke-opacity="0.28" stroke-width="2"/></g></svg>